<svg width="90" height="90" viewBox="0 0 90 90" fill="none" xmlns="http://www.w3.org/2000/svg">
<path d="M75 48.75V39.9637C75 36.8962 75 35.3662 74.43 33.9862C73.86 32.61 72.7762 31.5225 70.605 29.355L52.845 11.595C50.9737 9.72375 50.04 8.79 48.8775 8.235C48.6369 8.11943 48.3903 8.01678 48.1387 7.9275C46.9275 7.5 45.6038 7.5 42.96 7.5C30.7913 7.5 24.705 7.5 20.5837 10.8225C19.7516 11.4935 18.9935 12.2516 18.3225 13.0838C15 17.2125 15 23.2913 15 35.46V48.75M48.75 9.375V11.25C48.75 21.855 48.75 27.1613 52.0462 30.4538C55.3387 33.75 60.645 33.75 71.25 33.75H73.125" stroke="black" stroke-width="5" stroke-linecap="round" stroke-linejoin="round"/>
<path d="M76.8744 64.575C76.6832 60.1125 73.7769 60 69.8357 60C63.7644 60 62.7594 61.5225 62.7594 67.5V75C62.7594 80.9775 63.7644 82.5 69.8357 82.5C73.7769 82.5 76.6832 82.3875 76.8782 77.925M27.2469 71.25C27.2469 77.4637 22.5069 82.5 16.6569 82.5C15.3369 82.5 14.6769 82.5 14.1857 82.2C13.0119 81.4763 13.1282 80.0175 13.1282 78.75V63.75C13.1282 62.4825 13.0119 61.0237 14.1857 60.3C14.6769 60 15.3369 60 16.6607 60C22.5069 60 27.2469 65.0363 27.2469 71.25ZM44.9994 82.5C41.6694 82.5 40.0082 82.5 38.9732 81.4013C37.9382 80.3025 37.9382 78.5363 37.9382 75V67.5C37.9382 63.9637 37.9382 62.1975 38.9732 61.0987C40.0082 60 41.6732 60 44.9994 60C48.3257 60 49.9869 60 51.0219 61.0987C52.0569 62.1975 52.0569 63.9637 52.0569 67.5V75C52.0569 78.5363 52.0569 80.3025 51.0219 81.4013C49.9907 82.5 48.3257 82.5 44.9994 82.5Z" stroke="black" stroke-width="5" stroke-linecap="round"/>
</svg>
