<svg width="90" height="90" viewBox="0 0 90 90" fill="none" xmlns="http://www.w3.org/2000/svg">
<path d="M53.1973 10.3237V23.8087C53.1973 25.635 53.9248 27.39 55.2223 28.6837C56.5231 29.9789 58.2841 30.7057 60.1198 30.705H75.5885" stroke="black" stroke-width="5" stroke-linecap="round" stroke-linejoin="round"/>
<path d="M75.9375 32.1299V64.2599C75.863 66.3615 75.3734 68.4276 74.4968 70.3391C73.6202 72.2506 72.374 73.9697 70.83 75.3974C69.2847 76.8317 67.4719 77.9474 65.4953 78.6809C63.5187 79.4145 61.4169 79.7514 59.31 79.6724H30.8475C28.7278 79.7692 26.6098 79.4468 24.6149 78.7235C22.62 78.0002 20.7876 76.8903 19.2225 75.4574C17.6635 74.0258 16.4045 72.2987 15.5187 70.3765C14.6329 68.4542 14.1379 66.3751 14.0625 64.2599V25.7324C14.137 23.6308 14.6266 21.5647 15.5032 19.6532C16.3798 17.7417 17.626 16.0225 19.17 14.5949C20.7153 13.1606 22.5281 12.0448 24.5047 11.3113C26.4813 10.5778 28.5831 10.2409 30.69 10.3199H52.1175C55.3885 10.3083 58.546 11.5186 60.9713 13.7136L72.0712 23.9211C73.2557 24.9414 74.2121 26.1996 74.8782 27.6139C75.5443 29.0282 75.9053 30.5669 75.9375 32.1299Z" stroke="black" stroke-width="5" stroke-linecap="round" stroke-linejoin="round"/>
</svg>
