<svg width="90" height="90" viewBox="0 0 90 90" fill="none" xmlns="http://www.w3.org/2000/svg">
<path d="M48.75 78.75H18.75C16.7609 78.75 14.8532 77.9598 13.4467 76.5533C12.0402 75.1468 11.25 73.2391 11.25 71.25V37.5M11.25 37.5H78.75M11.25 37.5V22.5C11.25 20.5109 12.0402 18.6032 13.4467 17.1967C14.8532 15.7902 16.7609 15 18.75 15H26.25M78.75 37.5V48.75M78.75 37.5V22.5C78.75 20.5109 77.9598 18.6032 76.5533 17.1967C75.1468 15.7902 73.2391 15 71.25 15H69.375M56.25 15V7.5M56.25 15V22.5M56.25 15H39.375M26.25 7.5V22.5M59.97 71.25H71.22M71.22 71.25H82.5M71.22 71.25V60M71.22 71.25V82.5" stroke="white" stroke-width="7" stroke-linecap="round" stroke-linejoin="round"/>
</svg>
