<svg width="90" height="90" viewBox="0 0 90 90" fill="none" xmlns="http://www.w3.org/2000/svg">
<path d="M22.5 71.25H33.75V52.5C33.75 51.4375 34.11 50.5475 34.83 49.83C35.55 49.1125 36.44 48.7525 37.5 48.75H52.5C53.5625 48.75 54.4537 49.11 55.1737 49.83C55.8937 50.55 56.2525 51.44 56.25 52.5V71.25H67.5V37.5L45 20.625L22.5 37.5V71.25ZM15 71.25V37.5C15 36.3125 15.2662 35.1875 15.7987 34.125C16.3312 33.0625 17.065 32.1875 18 31.5L40.5 14.625C41.8125 13.625 43.3125 13.125 45 13.125C46.6875 13.125 48.1875 13.625 49.5 14.625L72 31.5C72.9375 32.1875 73.6725 33.0625 74.205 34.125C74.7375 35.1875 75.0025 36.3125 75 37.5V71.25C75 73.3125 74.265 75.0788 72.795 76.5488C71.325 78.0188 69.56 78.7525 67.5 78.75H52.5C51.4375 78.75 50.5475 78.39 49.83 77.67C49.1125 76.95 48.7525 76.06 48.75 75V56.25H41.25V75C41.25 76.0625 40.89 76.9537 40.17 77.6737C39.45 78.3937 38.56 78.7525 37.5 78.75H22.5C20.4375 78.75 18.6725 78.0163 17.205 76.5488C15.7375 75.0812 15.0025 73.315 15 71.25Z" fill="white"/>
</svg>
