<svg width="90" height="90" viewBox="0 0 90 90" fill="none" xmlns="http://www.w3.org/2000/svg">
<path d="M26.25 22.5C26.25 21.5054 26.6451 20.5516 27.3484 19.8484C28.0516 19.1451 29.0054 18.75 30 18.75H60C60.9946 18.75 61.9484 19.1451 62.6517 19.8484C63.3549 20.5516 63.75 21.5054 63.75 22.5V30C63.75 30.9946 63.3549 31.9484 62.6517 32.6516C61.9484 33.3549 60.9946 33.75 60 33.75H30C29.0054 33.75 28.0516 33.3549 27.3484 32.6516C26.6451 31.9484 26.25 30.9946 26.25 30V22.5ZM31.875 28.125H58.125V24.375H31.875V28.125ZM15 16.875C15 14.3886 15.9877 12.004 17.7459 10.2459C19.504 8.48772 21.8886 7.5 24.375 7.5H67.5C68.7311 7.5 69.9502 7.74249 71.0877 8.21363C72.2251 8.68477 73.2586 9.37532 74.1291 10.2459C74.9997 11.1164 75.6902 12.1499 76.1614 13.2873C76.6325 14.4248 76.875 15.6439 76.875 16.875V70.3125C76.875 71.0584 76.5787 71.7738 76.0512 72.3012C75.5238 72.8287 74.8084 73.125 74.0625 73.125H20.625C20.625 74.1196 21.0201 75.0734 21.7234 75.7767C22.4266 76.4799 23.3804 76.875 24.375 76.875H74.0625C74.8084 76.875 75.5238 77.1713 76.0512 77.6988C76.5787 78.2262 76.875 78.9416 76.875 79.6875C76.875 80.4334 76.5787 81.1488 76.0512 81.6762C75.5238 82.2037 74.8084 82.5 74.0625 82.5H24.375C21.8886 82.5 19.504 81.5123 17.7459 79.7541C15.9877 77.996 15 75.6114 15 73.125V16.875ZM20.625 67.5H71.25V16.875C71.25 15.8804 70.8549 14.9266 70.1517 14.2233C69.4484 13.5201 68.4946 13.125 67.5 13.125H24.375C23.3804 13.125 22.4266 13.5201 21.7234 14.2233C21.0201 14.9266 20.625 15.8804 20.625 16.875V67.5Z" fill="white"/>
</svg>
