<svg width="150" height="150" viewBox="0 0 150 150" fill="none" xmlns="http://www.w3.org/2000/svg">
<path d="M150 0C150 0 150 101.37 150 150C120.318 62.7778 0 109.444 0 0C57.7737 0 150 0 150 0Z" fill="#032B91"/>
<path d="M77.5001 65.4167V39.1667C77.5001 34.5254 79.3438 30.0742 82.6257 26.7923C85.9076 23.5104 90.3588 21.6667 95.0001 21.6667C99.6414 21.6667 104.093 23.5104 107.374 26.7923C110.656 30.0742 112.5 34.5254 112.5 39.1667V65.4167M77.5001 65.4167H112.5M77.5001 65.4167H71.6667M112.5 65.4167H118.333M92.0834 74.1667H97.9167" stroke="white" stroke-width="4" stroke-linecap="round" stroke-linejoin="round"/>
<path d="M95.0002 21.6667C96.611 21.6667 97.9168 20.3608 97.9168 18.75C97.9168 17.1392 96.611 15.8333 95.0002 15.8333C93.3893 15.8333 92.0835 17.1392 92.0835 18.75C92.0835 20.3608 93.3893 21.6667 95.0002 21.6667Z" stroke="white" stroke-width="4"/>
</svg>
