<svg width="90" height="90" viewBox="0 0 90 90" fill="none" xmlns="http://www.w3.org/2000/svg">
<path d="M75 48.75V39.9637C75 36.8962 75 35.3662 74.43 33.9862C73.86 32.61 72.7762 31.5225 70.605 29.355L52.845 11.595C50.9738 9.72375 50.04 8.79 48.8775 8.235C48.6369 8.11943 48.3903 8.01678 48.1387 7.9275C46.9275 7.5 45.6038 7.5 42.96 7.5C30.7913 7.5 24.705 7.5 20.5837 10.8225C19.7516 11.4935 18.9935 12.2516 18.3225 13.0838C15 17.2125 15 23.2913 15 35.46V48.75M48.75 9.375V11.25C48.75 21.855 48.75 27.1613 52.0462 30.4538C55.3387 33.75 60.645 33.75 71.25 33.75H73.125M15 82.5V71.25M15 71.25V60H22.5C23.9918 60 25.4226 60.5926 26.4775 61.6475C27.5324 62.7024 28.125 64.1332 28.125 65.625C28.125 67.1168 27.5324 68.5476 26.4775 69.6025C25.4226 70.6574 23.9918 71.25 22.5 71.25H15ZM37.5 82.5V71.25M37.5 71.25V60H45C46.4918 60 47.9226 60.5926 48.9775 61.6475C50.0324 62.7024 50.625 64.1332 50.625 65.625C50.625 67.1168 50.0324 68.5476 48.9775 69.6025C47.9226 70.6574 46.4918 71.25 45 71.25H37.5ZM60 60H67.5M67.5 60H75M67.5 60V82.5" stroke="black" stroke-width="5" stroke-linecap="round" stroke-linejoin="round"/>
</svg>
