<svg width="90" height="90" viewBox="0 0 90 90" fill="none" xmlns="http://www.w3.org/2000/svg">
<path d="M71.2197 56.7373C72.085 56.7373 72.9145 57.0815 73.5264 57.6934C74.1382 58.3052 74.4824 59.1347 74.4824 60V67.9873H82.5C83.3652 67.9874 84.1949 68.3316 84.8066 68.9434C85.4184 69.5552 85.7627 70.3848 85.7627 71.25C85.7627 72.1152 85.4184 72.9448 84.8066 73.5566C84.1949 74.1684 83.3652 74.5126 82.5 74.5127H74.4824V82.5C74.4824 83.3653 74.1382 84.1948 73.5264 84.8066C72.9145 85.4185 72.085 85.7627 71.2197 85.7627C70.3545 85.7627 69.5249 85.4185 68.9131 84.8066C68.3012 84.1948 67.957 83.3653 67.957 82.5V74.5127H59.9697C59.1045 74.5127 58.2749 74.1685 57.6631 73.5566C57.0512 72.9448 56.707 72.1153 56.707 71.25C56.707 70.3847 57.0512 69.5552 57.6631 68.9434C58.2749 68.3315 59.1045 67.9873 59.9697 67.9873H67.957V60C67.957 59.1347 68.3012 58.3052 68.9131 57.6934C69.5249 57.0815 70.3545 56.7373 71.2197 56.7373Z" fill="white" stroke="white" stroke-width="0.9"/>
<path d="M78.75 33.9375C79.6948 33.9375 80.6014 34.3124 81.2695 34.9805C81.9376 35.6486 82.3125 36.5552 82.3125 37.5V60L82.3086 60.1758C82.2655 61.0555 81.8974 61.891 81.2725 62.5176H81.2715L80.2266 63.5625H78.9072V60C78.9072 57.9613 78.0977 56.0061 76.6562 54.5645C75.2146 53.1228 73.2586 52.3125 71.2197 52.3125C69.181 52.3126 67.2258 53.1228 65.7842 54.5645C64.3426 56.0061 63.5322 57.9612 63.5322 60V63.5625H59.9697C57.931 63.5626 55.9758 64.3728 54.5342 65.8145C53.0926 67.2561 52.2822 69.2112 52.2822 71.25C52.2822 73.2888 53.0926 75.2439 54.5342 76.6855C55.9758 78.1272 57.931 78.9374 59.9697 78.9375H63.5322V80.2529L63.3125 80.4727L62.5176 81.2666C61.8502 81.9348 60.9454 82.3116 60.001 82.3125H18.75C15.816 82.3125 13.0024 81.1469 10.9277 79.0723C8.85311 76.9976 7.6875 74.184 7.6875 71.25V37.5C7.6875 36.5552 8.06237 35.6486 8.73047 34.9805C9.39857 34.3124 10.3052 33.9375 11.25 33.9375H78.75Z" fill="white" stroke="white" stroke-width="1.5"/>
<path d="M26.25 3.9375C27.1948 3.9375 28.1014 4.31237 28.7695 4.98047C29.4376 5.64857 29.8125 6.55517 29.8125 7.5V22.5C29.8125 23.4448 29.4376 24.3514 28.7695 25.0195C28.1014 25.6876 27.1948 26.0625 26.25 26.0625C25.3052 26.0625 24.3986 25.6876 23.7305 25.0195C23.0624 24.3514 22.6875 23.4448 22.6875 22.5V18.5625H18.75C16.5767 18.5625 14.8125 20.3267 14.8125 22.5V37.5C14.8125 38.4448 14.4376 39.3514 13.7695 40.0195C13.1014 40.6876 12.1948 41.0625 11.25 41.0625C10.3052 41.0625 9.39857 40.6876 8.73047 40.0195C8.06237 39.3514 7.6875 38.4448 7.6875 37.5V22.5C7.6875 19.566 8.85311 16.7524 10.9277 14.6777C13.0024 12.6031 15.816 11.4375 18.75 11.4375H22.6875V7.5C22.6875 6.55517 23.0624 5.64857 23.7305 4.98047C24.3986 4.31237 25.3052 3.9375 26.25 3.9375ZM71.25 11.4375C74.184 11.4375 76.9976 12.6031 79.0723 14.6777C81.1469 16.7524 82.3125 19.566 82.3125 22.5V37.5C82.3125 38.4448 81.9376 39.3514 81.2695 40.0195C80.6014 40.6876 79.6948 41.0625 78.75 41.0625C77.8052 41.0625 76.8986 40.6876 76.2305 40.0195C75.5624 39.3514 75.1875 38.4448 75.1875 37.5V22.5C75.1875 20.3267 73.4233 18.5625 71.25 18.5625H69.375C68.4302 18.5625 67.5236 18.1876 66.8555 17.5195C66.1874 16.8514 65.8125 15.9448 65.8125 15C65.8125 14.0552 66.1874 13.1486 66.8555 12.4805C67.5236 11.8124 68.4302 11.4375 69.375 11.4375H71.25ZM56.25 3.9375C57.1948 3.9375 58.1014 4.31237 58.7695 4.98047C59.4376 5.64857 59.8125 6.55517 59.8125 7.5V22.5C59.8125 23.4448 59.4376 24.3514 58.7695 25.0195C58.1014 25.6876 57.1948 26.0625 56.25 26.0625C55.3052 26.0625 54.3986 25.6876 53.7305 25.0195C53.0624 24.3514 52.6875 23.4448 52.6875 22.5V18.5625H39.375C38.4302 18.5625 37.5236 18.1876 36.8555 17.5195C36.1874 16.8514 35.8125 15.9448 35.8125 15C35.8125 14.0552 36.1874 13.1486 36.8555 12.4805C37.5236 11.8124 38.4302 11.4375 39.375 11.4375H52.6875V7.5C52.6875 6.55517 53.0624 5.64857 53.7305 4.98047C54.3986 4.31237 55.3052 3.9375 56.25 3.9375Z" fill="white" stroke="white" stroke-width="1.5"/>
</svg>
