<svg width="90" height="90" viewBox="0 0 90 90" fill="none" xmlns="http://www.w3.org/2000/svg">
<path d="M24.375 7.5C21.8886 7.5 19.504 8.48772 17.7459 10.2459C15.9877 12.004 15 14.3886 15 16.875V73.125C15 75.6114 15.9877 77.996 17.7459 79.7541C19.504 81.5123 21.8886 82.5 24.375 82.5H74.0625C74.8084 82.5 75.5238 82.2037 76.0512 81.6762C76.5787 81.1488 76.875 80.4334 76.875 79.6875C76.875 78.9416 76.5787 78.2262 76.0512 77.6988C75.5238 77.1713 74.8084 76.875 74.0625 76.875H24.375C23.3804 76.875 22.4266 76.4799 21.7234 75.7767C21.0201 75.0734 20.625 74.1196 20.625 73.125H74.0625C74.8084 73.125 75.5238 72.8287 76.0512 72.3012C76.5787 71.7738 76.875 71.0584 76.875 70.3125V16.875C76.875 15.6439 76.6325 14.4248 76.1614 13.2873C75.6902 12.1499 74.9997 11.1164 74.1291 10.2459C73.2586 9.37532 72.2251 8.68477 71.0877 8.21363C69.9502 7.74249 68.7311 7.5 67.5 7.5H24.375ZM30 18.75H60C60.9946 18.75 61.9484 19.1451 62.6517 19.8484C63.3549 20.5516 63.75 21.5054 63.75 22.5V26.25C63.75 27.2446 63.3549 28.1984 62.6517 28.9016C61.9484 29.6049 60.9946 30 60 30H30C29.0054 30 28.0516 29.6049 27.3484 28.9016C26.6451 28.1984 26.25 27.2446 26.25 26.25V22.5C26.25 21.5054 26.6451 20.5516 27.3484 19.8484C28.0516 19.1451 29.0054 18.75 30 18.75Z" fill="white"/>
</svg>
