<svg width="90" height="90" viewBox="0 0 90 90" fill="none" xmlns="http://www.w3.org/2000/svg">
<path d="M45 14.0625C41.2704 14.0625 37.6935 15.5441 35.0563 18.1813C32.4191 20.8185 30.9375 24.3954 30.9375 28.125C30.9375 31.8546 32.4191 35.4315 35.0563 38.0687C37.6935 40.7059 41.2704 42.1875 45 42.1875C48.7296 42.1875 52.3065 40.7059 54.9437 38.0687C57.5809 35.4315 59.0625 31.8546 59.0625 28.125C59.0625 24.3954 57.5809 20.8185 54.9437 18.1813C52.3065 15.5441 48.7296 14.0625 45 14.0625ZM30 49.6875C26.2704 49.6875 22.6935 51.1691 20.0563 53.8063C17.4191 56.4435 15.9375 60.0204 15.9375 63.75V68.205C15.9375 71.0325 17.985 73.44 20.775 73.8937C36.8175 76.515 53.1825 76.515 69.225 73.8937C70.5743 73.6718 71.8011 72.9782 72.6869 71.9364C73.5728 70.8947 74.0602 69.5724 74.0625 68.205V63.75C74.0625 60.0204 72.5809 56.4435 69.9437 53.8063C67.3065 51.1691 63.7296 49.6875 60 49.6875H58.725C58.025 49.69 57.345 49.7975 56.685 50.01L53.4375 51.0713C47.9549 52.8611 42.0451 52.8611 36.5625 51.0713L33.315 50.01C32.6568 49.7989 31.97 49.6901 31.2787 49.6875H30Z" fill="white"/>
</svg>
