<svg width="90" height="90" viewBox="0 0 90 90" fill="none" xmlns="http://www.w3.org/2000/svg">
<path d="M78.75 64.6875V33.75H11.25V64.6875C11.25 68.4171 12.7316 71.994 15.3688 74.6312C18.006 77.2684 21.5829 78.75 25.3125 78.75H64.6875C68.4171 78.75 71.994 77.2684 74.6312 74.6312C77.2684 71.994 78.75 68.4171 78.75 64.6875ZM33.7331 46.395C33.7331 47.5116 33.2895 48.5826 32.5 49.3721C31.7104 50.1617 30.6395 50.6053 29.5228 50.6053C28.4062 50.6053 27.3353 50.1617 26.5457 49.3721C25.7561 48.5826 25.3125 47.5116 25.3125 46.395C25.3125 45.2784 25.7561 44.2074 26.5457 43.4179C27.3353 42.6283 28.4062 42.1847 29.5228 42.1847C30.6395 42.1847 31.7104 42.6283 32.5 43.4179C33.2895 44.2074 33.7331 45.2784 33.7331 46.395ZM33.7331 60.4575C33.7331 61.5741 33.2895 62.6451 32.5 63.4346C31.7104 64.2242 30.6395 64.6678 29.5228 64.6678C28.4062 64.6678 27.3353 64.2242 26.5457 63.4346C25.7561 62.6451 25.3125 61.5741 25.3125 60.4575C25.3125 59.3409 25.7561 58.2699 26.5457 57.4804C27.3353 56.6908 28.4062 56.2472 29.5228 56.2472C30.6395 56.2472 31.7104 56.6908 32.5 57.4804C33.2895 58.2699 33.7331 59.3409 33.7331 60.4575ZM49.2131 46.395C49.2131 47.5116 48.7695 48.5826 47.98 49.3721C47.1904 50.1617 46.1195 50.6053 45.0028 50.6053C43.8862 50.6053 42.8153 50.1617 42.0257 49.3721C41.2361 48.5826 40.7925 47.5116 40.7925 46.395C40.7925 45.2784 41.2361 44.2074 42.0257 43.4179C42.8153 42.6283 43.8862 42.1847 45.0028 42.1847C46.1195 42.1847 47.1904 42.6283 47.98 43.4179C48.7695 44.2074 49.2131 45.2784 49.2131 46.395ZM49.2131 60.4575C49.2131 61.5741 48.7695 62.6451 47.98 63.4346C47.1904 64.2242 46.1195 64.6678 45.0028 64.6678C43.8862 64.6678 42.8153 64.2242 42.0257 63.4346C41.2361 62.6451 40.7925 61.5741 40.7925 60.4575C40.7925 59.3409 41.2361 58.2699 42.0257 57.4804C42.8153 56.6908 43.8862 56.2472 45.0028 56.2472C46.1195 56.2472 47.1904 56.6908 47.98 57.4804C48.7695 58.2699 49.2131 59.3409 49.2131 60.4575ZM64.6706 46.395C64.6706 47.5116 64.227 48.5826 63.4375 49.3721C62.6479 50.1617 61.577 50.6053 60.4603 50.6053C59.3437 50.6053 58.2728 50.1617 57.4832 49.3721C56.6936 48.5826 56.25 47.5116 56.25 46.395C56.25 45.2784 56.6936 44.2074 57.4832 43.4179C58.2728 42.6283 59.3437 42.1847 60.4603 42.1847C61.577 42.1847 62.6479 42.6283 63.4375 43.4179C64.227 44.2074 64.6706 45.2784 64.6706 46.395ZM78.75 25.3125C78.75 21.5829 77.2684 18.006 74.6312 15.3688C71.994 12.7316 68.4171 11.25 64.6875 11.25H25.3125C21.5829 11.25 18.006 12.7316 15.3688 15.3688C12.7316 18.006 11.25 21.5829 11.25 25.3125V28.125H78.75V25.3125Z" fill="white"/>
</svg>
