<svg width="90" height="90" viewBox="0 0 90 90" fill="none" xmlns="http://www.w3.org/2000/svg">
<path d="M15 71.25V37.5C15 36.3125 15.2662 35.1875 15.7987 34.125C16.3312 33.0625 17.065 32.1875 18 31.5L40.5 14.625C41.8125 13.625 43.3125 13.125 45 13.125C46.6875 13.125 48.1875 13.625 49.5 14.625L72 31.5C72.9375 32.1875 73.6725 33.0625 74.205 34.125C74.7375 35.1875 75.0025 36.3125 75 37.5V71.25C75 73.3125 74.265 75.0788 72.795 76.5488C71.325 78.0188 69.56 78.7525 67.5 78.75H56.25C55.1875 78.75 54.2975 78.39 53.58 77.67C52.8625 76.95 52.5025 76.06 52.5 75V56.25C52.5 55.1875 52.14 54.2975 51.42 53.58C50.7 52.8625 49.81 52.5025 48.75 52.5H41.25C40.1875 52.5 39.2975 52.86 38.58 53.58C37.8625 54.3 37.5025 55.19 37.5 56.25V75C37.5 76.0625 37.14 76.9537 36.42 77.6737C35.7 78.3937 34.81 78.7525 33.75 78.75H22.5C20.4375 78.75 18.6725 78.0163 17.205 76.5488C15.7375 75.0812 15.0025 73.315 15 71.25Z" fill="white"/>
</svg>
