<svg width="90" height="90" viewBox="0 0 90 90" fill="none" xmlns="http://www.w3.org/2000/svg">
<path d="M29.52 50.6081C30.6366 50.6081 31.7076 50.1645 32.4971 49.375C33.2867 48.5854 33.7303 47.5145 33.7303 46.3978C33.7303 45.2812 33.2867 44.2103 32.4971 43.4207C31.7076 42.6311 30.6366 42.1875 29.52 42.1875C28.4034 42.1875 27.3324 42.6311 26.5429 43.4207C25.7533 44.2103 25.3097 45.2812 25.3097 46.3978C25.3097 47.5145 25.7533 48.5854 26.5429 49.375C27.3324 50.1645 28.4034 50.6081 29.52 50.6081ZM33.7331 60.4631C33.7331 61.5798 33.2895 62.6507 32.5 63.4403C31.7104 64.2299 30.6395 64.6734 29.5228 64.6734C28.4062 64.6734 27.3353 64.2299 26.5457 63.4403C25.7561 62.6507 25.3125 61.5798 25.3125 60.4631C25.3125 59.3465 25.7561 58.2756 26.5457 57.486C27.3353 56.6964 28.4062 56.2528 29.5228 56.2528C30.6395 56.2528 31.7104 56.6964 32.5 57.486C33.2895 58.2756 33.7331 59.3465 33.7331 60.4631ZM45 50.6081C46.1166 50.6081 47.1876 50.1645 47.9771 49.375C48.7667 48.5854 49.2103 47.5145 49.2103 46.3978C49.2103 45.2812 48.7667 44.2103 47.9771 43.4207C47.1876 42.6311 46.1166 42.1875 45 42.1875C43.8834 42.1875 42.8124 42.6311 42.0229 43.4207C41.2333 44.2103 40.7897 45.2812 40.7897 46.3978C40.7897 47.5145 41.2333 48.5854 42.0229 49.375C42.8124 50.1645 43.8834 50.6081 45 50.6081ZM49.2131 60.4631C49.2131 61.5798 48.7695 62.6507 47.98 63.4403C47.1904 64.2299 46.1195 64.6734 45.0028 64.6734C43.8862 64.6734 42.8153 64.2299 42.0257 63.4403C41.2361 62.6507 40.7925 61.5798 40.7925 60.4631C40.7925 59.3465 41.2361 58.2756 42.0257 57.486C42.8153 56.6964 43.8862 56.2528 45.0028 56.2528C46.1195 56.2528 47.1904 56.6964 47.98 57.486C48.7695 58.2756 49.2131 59.3465 49.2131 60.4631ZM60.4631 50.6081C61.5798 50.6081 62.6507 50.1645 63.4403 49.375C64.2299 48.5854 64.6734 47.5145 64.6734 46.3978C64.6734 45.2812 64.2299 44.2103 63.4403 43.4207C62.6507 42.6311 61.5798 42.1875 60.4631 42.1875C59.3465 42.1875 58.2756 42.6311 57.486 43.4207C56.6964 44.2103 56.2528 45.2812 56.2528 46.3978C56.2528 47.5145 56.6964 48.5854 57.486 49.375C58.2756 50.1645 59.3465 50.6081 60.4631 50.6081ZM78.75 25.3125C78.75 21.5829 77.2684 18.006 74.6312 15.3688C71.994 12.7316 68.4171 11.25 64.6875 11.25H25.3125C21.5829 11.25 18.006 12.7316 15.3688 15.3688C12.7316 18.006 11.25 21.5829 11.25 25.3125V64.6875C11.25 68.4171 12.7316 71.994 15.3688 74.6312C18.006 77.2684 21.5829 78.75 25.3125 78.75H64.6875C68.4171 78.75 71.994 77.2684 74.6312 74.6312C77.2684 71.994 78.75 68.4171 78.75 64.6875V25.3125ZM16.875 33.75H73.125V64.6875C73.125 66.9253 72.2361 69.0714 70.6537 70.6537C69.0714 72.2361 66.9253 73.125 64.6875 73.125H25.3125C23.0747 73.125 20.9286 72.2361 19.3463 70.6537C17.7639 69.0714 16.875 66.9253 16.875 64.6875V33.75ZM25.3125 16.875H64.6875C66.9253 16.875 69.0714 17.7639 70.6537 19.3463C72.2361 20.9286 73.125 23.0747 73.125 25.3125V28.125H16.875V25.3125C16.875 23.0747 17.7639 20.9286 19.3463 19.3463C20.9286 17.7639 23.0747 16.875 25.3125 16.875Z" fill="white"/>
</svg>
