<svg width="46" height="51" viewBox="0 0 46 51" fill="none" xmlns="http://www.w3.org/2000/svg">
<rect width="46" height="51" rx="10" fill="#4472C4"/>
<path d="M5.22363 7.625C11.0618 7.65121 15.4542 8.37614 18.5996 9.87891C20.8698 10.9636 22.4777 12.4502 23.5 14.3193C24.5223 12.4502 26.1302 10.9636 28.4004 9.87891C31.5458 8.37613 35.9382 7.65121 41.7764 7.625H41.7773C42.0941 7.62381 42.4083 7.68501 42.7012 7.80566C42.9941 7.92635 43.2603 8.1041 43.4844 8.32812C43.7084 8.55215 43.8861 8.81839 44.0068 9.11133C44.127 9.40306 44.1882 9.71574 44.1875 10.0312V35.3438C44.1875 35.9819 43.9337 36.5937 43.4824 37.0449C43.0312 37.4962 42.4194 37.75 41.7812 37.75C30.6497 37.75 26.685 39.9951 24.2812 43C24.2781 43.0039 24.2737 43.0069 24.2705 43.0107C24.2273 43.0631 24.1789 43.1107 24.126 43.1533C24.12 43.1581 24.1135 43.1623 24.1074 43.167C24.0852 43.1841 24.0627 43.2006 24.0391 43.2158C24.0288 43.2224 24.0183 43.2282 24.0078 43.2344C23.9899 43.245 23.9718 43.2551 23.9531 43.2646C23.9414 43.2706 23.9299 43.2767 23.918 43.2822C23.8947 43.293 23.8709 43.3026 23.8467 43.3115C23.8369 43.3151 23.8273 43.319 23.8174 43.3223C23.7947 43.3299 23.7715 43.3358 23.748 43.3418C23.7366 43.3447 23.7254 43.3481 23.7139 43.3506C23.6449 43.3656 23.5735 43.375 23.5 43.375C23.4262 43.375 23.3544 43.3658 23.2852 43.3506C23.274 43.3481 23.263 43.3446 23.252 43.3418C23.2262 43.3352 23.2007 43.3288 23.1758 43.3203C23.1698 43.3183 23.1641 43.3156 23.1582 43.3135C23.1317 43.3038 23.1055 43.294 23.0801 43.2822C23.0678 43.2765 23.056 43.2699 23.0439 43.2637C23.029 43.256 23.0145 43.2477 23 43.2393C22.9846 43.2303 22.969 43.2217 22.9541 43.2119C22.938 43.2014 22.9226 43.1901 22.9072 43.1787C22.8529 43.1386 22.8026 43.093 22.7568 43.042C22.746 43.03 22.7348 43.0184 22.7246 43.0059C22.7228 43.0036 22.7206 43.0013 22.7188 42.999C20.3306 40.011 16.3495 37.75 5.21875 37.75C4.49013 37.75 3.86084 37.4431 3.42871 36.9355C3.00931 36.4429 2.8125 35.8084 2.8125 35.1738V10.0312C2.81181 9.71575 2.87298 9.40307 2.99316 9.11133C3.11386 8.81839 3.2916 8.55215 3.51562 8.32812C3.73965 8.1041 4.00589 7.92635 4.29883 7.80566C4.59173 7.685 4.90587 7.62381 5.22266 7.625H5.22363Z" stroke="white" stroke-width="2" stroke-linecap="round" stroke-linejoin="round"/>
</svg>
