<svg width="50" height="50" viewBox="0 0 50 50" fill="none" xmlns="http://www.w3.org/2000/svg">
<path d="M0 10C0 4.47715 4.47715 0 10 0H40C45.5228 0 50 4.47715 50 10V40C50 45.5228 45.5228 50 40 50H10C4.47715 50 0 45.5228 0 40V10Z" fill="#4472C4"/>
<path fill-rule="evenodd" clip-rule="evenodd" d="M25 25C28.9021 25 32.4375 26.2917 35.0313 28.0979C37.4958 29.8167 39.5833 32.3708 39.5833 35.1188C39.5833 36.6271 38.9396 37.8771 37.925 38.8063C36.9708 39.6833 35.725 40.2521 34.4417 40.6396C31.8771 41.4167 28.5 41.6667 25 41.6667C21.5 41.6667 18.1229 41.4167 15.5583 40.6396C14.275 40.2521 13.0292 39.6833 12.0729 38.8063C11.0625 37.8792 10.4167 36.6292 10.4167 35.1208C10.4167 32.3729 12.5042 29.8188 14.9688 28.1C17.5625 26.2917 21.0979 25 25 25ZM25 29.1667C22 29.1667 19.2854 30.1667 17.3542 31.5146C15.2938 32.9521 14.5833 34.4146 14.5833 35.1188C14.5833 35.7521 15.3167 36.1479 15.9833 36.3979L16.4104 36.5438L16.7646 36.6521C18.7229 37.2438 21.5979 37.5 25 37.5C28.1417 37.5 30.8312 37.2813 32.7667 36.7833L33.4 36.6021L33.7958 36.4771C34.5104 36.2333 35.4167 35.8229 35.4167 35.1188C35.4167 34.4146 34.7063 32.9521 32.6458 31.5146C30.7167 30.1688 28 29.1667 25 29.1667ZM39.5833 27.0833C41.7583 27.0833 43.7333 27.8021 45.1938 28.8188C46.5271 29.75 47.9167 31.2979 47.9167 33.1854C47.9167 35.9667 45.2146 36.9625 42.7854 37.3104L42.1604 37.3875L41.5583 37.4396L41.2708 37.4563C41.525 36.7375 41.6667 35.9563 41.6667 35.1188C41.6654 34.4955 41.5906 33.8745 41.4438 33.2688C42.2479 33.2063 42.9083 33.1021 43.4 32.9542C43.6167 32.8875 43.4208 32.6833 43.1917 32.5063L42.9688 32.3438L42.8104 32.2375C42.1851 31.8107 41.48 31.5145 40.7375 31.3667C39.9458 29.7833 38.7292 28.4125 37.4333 27.3188C38.1394 27.1628 38.8603 27.0838 39.5833 27.0833ZM10.4167 27.0833C11.1625 27.0861 11.8792 27.1646 12.5667 27.3188C11.2708 28.4125 10.0542 29.7833 9.2625 31.3667C8.51996 31.5145 7.81491 31.8107 7.18958 32.2375L6.92292 32.4208C6.65833 32.6125 6.34792 32.8792 6.6 32.9542C7.09167 33.1021 7.75208 33.2083 8.55833 33.2688C8.40879 33.8741 8.33324 34.4953 8.33333 35.1188C8.33333 35.9563 8.475 36.7375 8.72917 37.4563L8.14583 37.4146L7.52917 37.3521C5.025 37.0458 2.08333 36.0875 2.08333 33.1854C2.08333 31.3 3.47083 29.75 4.80625 28.8188C6.45828 27.6871 8.41421 27.0821 10.4167 27.0833ZM38.5417 14.5833C39.923 14.5833 41.2478 15.1321 42.2245 16.1088C43.2013 17.0856 43.75 18.4103 43.75 19.7917C43.75 21.173 43.2013 22.4978 42.2245 23.4745C41.2478 24.4513 39.923 25 38.5417 25C37.1603 25 35.8356 24.4513 34.8588 23.4745C33.8821 22.4978 33.3333 21.173 33.3333 19.7917C33.3333 18.4103 33.8821 17.0856 34.8588 16.1088C35.8356 15.1321 37.1603 14.5833 38.5417 14.5833ZM11.4583 14.5833C12.8397 14.5833 14.1644 15.1321 15.1412 16.1088C16.1179 17.0856 16.6667 18.4103 16.6667 19.7917C16.6667 21.173 16.1179 22.4978 15.1412 23.4745C14.1644 24.4513 12.8397 25 11.4583 25C10.077 25 8.75224 24.4513 7.77549 23.4745C6.79873 22.4978 6.25 21.173 6.25 19.7917C6.25 18.4103 6.79873 17.0856 7.77549 16.1088C8.75224 15.1321 10.077 14.5833 11.4583 14.5833ZM25 6.25C27.2101 6.25 29.3298 7.12797 30.8926 8.69078C32.4554 10.2536 33.3333 12.3732 33.3333 14.5833C33.3333 16.7935 32.4554 18.9131 30.8926 20.4759C29.3298 22.0387 27.2101 22.9167 25 22.9167C22.7899 22.9167 20.6702 22.0387 19.1074 20.4759C17.5446 18.9131 16.6667 16.7935 16.6667 14.5833C16.6667 12.3732 17.5446 10.2536 19.1074 8.69078C20.6702 7.12797 22.7899 6.25 25 6.25ZM38.5417 18.75C38.2654 18.75 38.0004 18.8597 37.8051 19.0551C37.6097 19.2504 37.5 19.5154 37.5 19.7917C37.5 20.0679 37.6097 20.3329 37.8051 20.5282C38.0004 20.7236 38.2654 20.8333 38.5417 20.8333C38.8179 20.8333 39.0829 20.7236 39.2782 20.5282C39.4736 20.3329 39.5833 20.0679 39.5833 19.7917C39.5833 19.5154 39.4736 19.2504 39.2782 19.0551C39.0829 18.8597 38.8179 18.75 38.5417 18.75ZM11.4583 18.75C11.1821 18.75 10.9171 18.8597 10.7218 19.0551C10.5264 19.2504 10.4167 19.5154 10.4167 19.7917C10.4167 20.0679 10.5264 20.3329 10.7218 20.5282C10.9171 20.7236 11.1821 20.8333 11.4583 20.8333C11.7346 20.8333 11.9996 20.7236 12.1949 20.5282C12.3903 20.3329 12.5 20.0679 12.5 19.7917C12.5 19.5154 12.3903 19.2504 12.1949 19.0551C11.9996 18.8597 11.7346 18.75 11.4583 18.75ZM25 10.4167C23.8949 10.4167 22.8351 10.8557 22.0537 11.6371C21.2723 12.4185 20.8333 13.4783 20.8333 14.5833C20.8333 15.6884 21.2723 16.7482 22.0537 17.5296C22.8351 18.311 23.8949 18.75 25 18.75C26.1051 18.75 27.1649 18.311 27.9463 17.5296C28.7277 16.7482 29.1667 15.6884 29.1667 14.5833C29.1667 13.4783 28.7277 12.4185 27.9463 11.6371C27.1649 10.8557 26.1051 10.4167 25 10.4167Z" fill="white"/>
</svg>
