<svg width="90" height="90" viewBox="0 0 90 90" fill="none" xmlns="http://www.w3.org/2000/svg">
<path fill-rule="evenodd" clip-rule="evenodd" d="M29.0625 28.125C29.0625 26.0321 29.4747 23.9596 30.2757 22.026C31.0766 20.0924 32.2506 18.3354 33.7305 16.8555C35.2104 15.3756 36.9674 14.2016 38.901 13.4007C40.8346 12.5997 42.9071 12.1875 45 12.1875C47.0929 12.1875 49.1654 12.5997 51.099 13.4007C53.0326 14.2016 54.7896 15.3756 56.2695 16.8555C57.7495 18.3354 58.9234 20.0924 59.7243 22.026C60.5253 23.9596 60.9375 26.0321 60.9375 28.125C60.9375 32.3519 59.2584 36.4057 56.2695 39.3945C53.2807 42.3834 49.2269 44.0625 45 44.0625C40.7731 44.0625 36.7193 42.3834 33.7305 39.3945C30.7416 36.4057 29.0625 32.3519 29.0625 28.125ZM45 17.8125C42.265 17.8125 39.6419 18.899 37.708 20.833C35.774 22.7669 34.6875 25.39 34.6875 28.125C34.6875 30.86 35.774 33.4831 37.708 35.417C39.6419 37.351 42.265 38.4375 45 38.4375C47.735 38.4375 50.3581 37.351 52.292 35.417C54.226 33.4831 55.3125 30.86 55.3125 28.125C55.3125 25.39 54.226 22.7669 52.292 20.833C50.3581 18.899 47.735 17.8125 45 17.8125ZM30 55.3125C27.7622 55.3125 25.6161 56.2015 24.0338 57.7838C22.4514 59.3661 21.5625 61.5122 21.5625 63.75V68.205C21.5625 68.2725 21.6113 68.3325 21.6788 68.3438C37.125 70.8638 52.8787 70.8638 68.3213 68.3438C68.3531 68.3364 68.3817 68.3189 68.4027 68.2939C68.4236 68.2688 68.4359 68.2376 68.4375 68.205V63.75C68.4375 61.5122 67.5485 59.3661 65.9662 57.7838C64.3839 56.2015 62.2378 55.3125 60 55.3125H58.725C58.6247 55.3142 58.5251 55.3294 58.4288 55.3575L55.185 56.4188C48.5669 58.5797 41.4331 58.5797 34.815 56.4188L31.5675 55.3575C31.4736 55.33 31.3765 55.3149 31.2787 55.3125H30ZM15.9375 63.75C15.9375 60.0204 17.4191 56.4435 20.0563 53.8063C22.6935 51.1691 26.2704 49.6875 30 49.6875H31.275C31.975 49.69 32.655 49.7975 33.315 50.01L36.5625 51.0713C42.0451 52.8611 47.9549 52.8611 53.4375 51.0713L56.685 50.01C57.3413 49.7963 58.0312 49.6875 58.7213 49.6875H60C63.7296 49.6875 67.3065 51.1691 69.9437 53.8063C72.5809 56.4435 74.0625 60.0204 74.0625 63.75V68.205C74.0625 71.0325 72.015 73.44 69.225 73.8937C53.1812 76.5126 36.8188 76.5126 20.775 73.8937C19.4257 73.6718 18.1989 72.9782 17.3131 71.9364C16.4272 70.8947 15.9398 69.5724 15.9375 68.205V63.75Z" fill="white"/>
</svg>
