<svg width="90" height="90" viewBox="0 0 90 90" fill="none" xmlns="http://www.w3.org/2000/svg">
<path d="M73.125 11.25H16.875C15.3832 11.25 13.9524 11.8426 12.8975 12.8975C11.8426 13.9524 11.25 15.3832 11.25 16.875V73.125C11.25 74.6168 11.8426 76.0476 12.8975 77.1025C13.9524 78.1574 15.3832 78.75 16.875 78.75H73.125C74.6168 78.75 76.0476 78.1574 77.1025 77.1025C78.1574 76.0476 78.75 74.6168 78.75 73.125V16.875C78.75 15.3832 78.1574 13.9524 77.1025 12.8975C76.0476 11.8426 74.6168 11.25 73.125 11.25Z" stroke="black" stroke-width="2" stroke-linecap="round" stroke-linejoin="round"/>
<path d="M11.25 28.125H78.75M61.875 11.25L50.625 28.125M39.375 11.25L28.125 28.125M38.4375 52.5V41.1337L48.2812 46.815L58.125 52.5L48.2812 58.1831L38.4375 63.8663V52.5Z" stroke="black" stroke-width="2" stroke-linecap="round" stroke-linejoin="round"/>
</svg>
