<svg width="90" height="90" viewBox="0 0 90 90" fill="none" xmlns="http://www.w3.org/2000/svg">
<path d="M75 48.75V39.9637C75 36.8962 75 35.3662 74.43 33.9862C73.86 32.61 72.7762 31.5225 70.605 29.355L52.845 11.595C50.9737 9.72375 50.04 8.79 48.8775 8.235C48.6369 8.11943 48.3903 8.01678 48.1387 7.9275C46.9275 7.5 45.6038 7.5 42.96 7.5C30.7913 7.5 24.705 7.5 20.5837 10.8225C19.7516 11.4935 18.9935 12.2516 18.3225 13.0838C15 17.2125 15 23.2913 15 35.46V48.75M48.75 9.375V11.25C48.75 21.855 48.75 27.1613 52.0462 30.4538C55.3387 33.75 60.645 33.75 71.25 33.75H73.125M74.0625 60H64.6875C63.6929 60 62.7391 60.3951 62.0358 61.0983C61.3326 61.8016 60.9375 62.7554 60.9375 63.75V71.25M60.9375 71.25V82.5M60.9375 71.25H72.1875M15.9375 82.5V73.125M15.9375 73.125V60H22.5C24.2405 60 25.9097 60.6914 27.1404 61.9221C28.3711 63.1528 29.0625 64.822 29.0625 66.5625C29.0625 68.303 28.3711 69.9722 27.1404 71.2029C25.9097 72.4336 24.2405 73.125 22.5 73.125H15.9375ZM38.4375 60H44.0625C46.0516 60 47.9593 60.7902 49.3658 62.1967C50.7723 63.6032 51.5625 65.5109 51.5625 67.5V75C51.5625 76.9891 50.7723 78.8968 49.3658 80.3033C47.9593 81.7098 46.0516 82.5 44.0625 82.5H38.4375V60Z" stroke="black" stroke-width="5" stroke-linecap="round" stroke-linejoin="round"/>
</svg>
